<mxfile host="app.diagrams.net" modified="2023-03-28T03:07:18.714Z" agent="Mozilla/5.0 (Macintosh; Intel Mac OS X 10_15_7) AppleWebKit/537.36 (KHTML, like Gecko) Chrome/111.0.0.0 Safari/537.36" etag="S8iGasUnQXJkw_4RjFbl" version="21.1.0" type="github">
  <diagram name="第 1 页" id="2S-Ca2IsNwOS8Z-HdMnA">
    <mxGraphModel dx="2074" dy="1105" grid="1" gridSize="10" guides="1" tooltips="1" connect="1" arrows="1" fold="1" page="1" pageScale="1" pageWidth="1169" pageHeight="827" math="0" shadow="0">
      <root>
        <mxCell id="0" />
        <mxCell id="1" parent="0" />
        <mxCell id="SUhYFws8DFkd1RlUectK-25" value="" style="rounded=0;whiteSpace=wrap;html=1;" vertex="1" parent="1">
          <mxGeometry x="30" y="9" width="1380" height="810" as="geometry" />
        </mxCell>
        <mxCell id="SUhYFws8DFkd1RlUectK-1" value="&lt;b style=&quot;border-color: var(--border-color);&quot;&gt;&lt;font style=&quot;border-color: var(--border-color); font-size: 44px;&quot;&gt;风险预警&lt;/font&gt;&lt;/b&gt;" style="shape=step;perimeter=stepPerimeter;whiteSpace=wrap;html=1;fixedSize=1;fillColor=#f5f5f5;fontColor=#333333;strokeColor=#666666;" vertex="1" parent="1">
          <mxGeometry x="80" y="40" width="250" height="80" as="geometry" />
        </mxCell>
        <mxCell id="SUhYFws8DFkd1RlUectK-2" value="&lt;b style=&quot;border-color: var(--border-color);&quot;&gt;&lt;font style=&quot;border-color: var(--border-color); font-size: 44px;&quot;&gt;故障发现&lt;/font&gt;&lt;/b&gt;" style="shape=step;perimeter=stepPerimeter;whiteSpace=wrap;html=1;fixedSize=1;fillColor=#f5f5f5;fontColor=#333333;strokeColor=#666666;" vertex="1" parent="1">
          <mxGeometry x="430" y="40" width="250" height="80" as="geometry" />
        </mxCell>
        <mxCell id="SUhYFws8DFkd1RlUectK-3" value="&lt;b style=&quot;border-color: var(--border-color);&quot;&gt;&lt;font style=&quot;border-color: var(--border-color); font-size: 44px;&quot;&gt;故障定位&lt;/font&gt;&lt;/b&gt;" style="shape=step;perimeter=stepPerimeter;whiteSpace=wrap;html=1;fixedSize=1;fillColor=#f5f5f5;fontColor=#333333;strokeColor=#666666;" vertex="1" parent="1">
          <mxGeometry x="760" y="40" width="250" height="80" as="geometry" />
        </mxCell>
        <mxCell id="SUhYFws8DFkd1RlUectK-4" value="&lt;b style=&quot;border-color: var(--border-color);&quot;&gt;&lt;font style=&quot;border-color: var(--border-color); font-size: 44px;&quot;&gt;故障恢复&lt;/font&gt;&lt;/b&gt;" style="shape=step;perimeter=stepPerimeter;whiteSpace=wrap;html=1;fixedSize=1;fillColor=#f5f5f5;fontColor=#333333;strokeColor=#666666;" vertex="1" parent="1">
          <mxGeometry x="1100" y="40" width="250" height="80" as="geometry" />
        </mxCell>
        <mxCell id="SUhYFws8DFkd1RlUectK-5" value="&lt;font style=&quot;font-size: 28px;&quot;&gt;监控大盘&lt;/font&gt;" style="rounded=0;whiteSpace=wrap;html=1;fillColor=#d5e8d4;strokeColor=#82b366;" vertex="1" parent="1">
          <mxGeometry x="785" y="170" width="200" height="60" as="geometry" />
        </mxCell>
        <mxCell id="SUhYFws8DFkd1RlUectK-6" value="&lt;font style=&quot;font-size: 28px;&quot;&gt;日常化巡检&lt;/font&gt;" style="rounded=0;whiteSpace=wrap;html=1;fillColor=#fff2cc;strokeColor=#d6b656;" vertex="1" parent="1">
          <mxGeometry x="105" y="500" width="200" height="60" as="geometry" />
        </mxCell>
        <mxCell id="SUhYFws8DFkd1RlUectK-7" value="&lt;font style=&quot;font-size: 28px;&quot;&gt;每日健康报告&lt;/font&gt;" style="rounded=0;whiteSpace=wrap;html=1;fillColor=#fff2cc;strokeColor=#d6b656;" vertex="1" parent="1">
          <mxGeometry x="105" y="610" width="200" height="60" as="geometry" />
        </mxCell>
        <mxCell id="SUhYFws8DFkd1RlUectK-8" value="&lt;font style=&quot;font-size: 28px;&quot;&gt;人工修复&lt;/font&gt;" style="rounded=0;whiteSpace=wrap;html=1;fillColor=#d5e8d4;strokeColor=#82b366;" vertex="1" parent="1">
          <mxGeometry x="1125" y="170" width="200" height="60" as="geometry" />
        </mxCell>
        <mxCell id="SUhYFws8DFkd1RlUectK-9" value="&lt;font style=&quot;font-size: 28px;&quot;&gt;修复方案建议&lt;/font&gt;" style="rounded=0;whiteSpace=wrap;html=1;fillColor=#d5e8d4;strokeColor=#82b366;" vertex="1" parent="1">
          <mxGeometry x="1125" y="280" width="200" height="60" as="geometry" />
        </mxCell>
        <mxCell id="SUhYFws8DFkd1RlUectK-10" value="&lt;font style=&quot;font-size: 28px;&quot;&gt;故障自愈&lt;/font&gt;" style="rounded=0;whiteSpace=wrap;html=1;fillColor=#fff2cc;strokeColor=#d6b656;" vertex="1" parent="1">
          <mxGeometry x="1125" y="390" width="200" height="60" as="geometry" />
        </mxCell>
        <mxCell id="SUhYFws8DFkd1RlUectK-11" value="&lt;font style=&quot;font-size: 28px;&quot;&gt;基于阈值告警&lt;/font&gt;" style="rounded=0;whiteSpace=wrap;html=1;fillColor=#d5e8d4;strokeColor=#82b366;" vertex="1" parent="1">
          <mxGeometry x="455" y="170" width="200" height="60" as="geometry" />
        </mxCell>
        <mxCell id="SUhYFws8DFkd1RlUectK-12" value="&lt;span style=&quot;font-size: 28px;&quot;&gt;异常事件&lt;/span&gt;" style="rounded=0;whiteSpace=wrap;html=1;fillColor=#d5e8d4;strokeColor=#82b366;" vertex="1" parent="1">
          <mxGeometry x="455" y="390" width="200" height="60" as="geometry" />
        </mxCell>
        <mxCell id="SUhYFws8DFkd1RlUectK-13" value="&lt;span style=&quot;font-size: 28px;&quot;&gt;知识图谱&lt;/span&gt;" style="rounded=0;whiteSpace=wrap;html=1;fillColor=#fff2cc;strokeColor=#d6b656;" vertex="1" parent="1">
          <mxGeometry x="785" y="500" width="200" height="60" as="geometry" />
        </mxCell>
        <mxCell id="SUhYFws8DFkd1RlUectK-14" value="&lt;span style=&quot;font-size: 28px;&quot;&gt;关联性分析&lt;/span&gt;" style="rounded=0;whiteSpace=wrap;html=1;fillColor=#d5e8d4;strokeColor=#82b366;" vertex="1" parent="1">
          <mxGeometry x="785" y="280" width="200" height="60" as="geometry" />
        </mxCell>
        <mxCell id="SUhYFws8DFkd1RlUectK-15" value="&lt;span style=&quot;font-size: 28px;&quot;&gt;根因定位&lt;/span&gt;" style="rounded=0;whiteSpace=wrap;html=1;fillColor=#d5e8d4;strokeColor=#82b366;" vertex="1" parent="1">
          <mxGeometry x="785" y="390" width="200" height="60" as="geometry" />
        </mxCell>
        <mxCell id="SUhYFws8DFkd1RlUectK-16" value="&lt;span style=&quot;font-size: 28px;&quot;&gt;故障趋势预测&lt;/span&gt;" style="rounded=0;whiteSpace=wrap;html=1;fillColor=#fff2cc;strokeColor=#d6b656;" vertex="1" parent="1">
          <mxGeometry x="105" y="390" width="200" height="60" as="geometry" />
        </mxCell>
        <mxCell id="SUhYFws8DFkd1RlUectK-17" value="&lt;span style=&quot;font-size: 28px;&quot;&gt;高风险操作&lt;/span&gt;" style="rounded=0;whiteSpace=wrap;html=1;fillColor=#d5e8d4;strokeColor=#82b366;" vertex="1" parent="1">
          <mxGeometry x="455" y="500" width="200" height="60" as="geometry" />
        </mxCell>
        <mxCell id="SUhYFws8DFkd1RlUectK-18" value="&lt;span style=&quot;font-size: 28px;&quot;&gt;特殊流量优化&lt;/span&gt;" style="rounded=0;whiteSpace=wrap;html=1;fillColor=#fff2cc;strokeColor=#d6b656;" vertex="1" parent="1">
          <mxGeometry x="455" y="610" width="200" height="60" as="geometry" />
        </mxCell>
        <mxCell id="SUhYFws8DFkd1RlUectK-19" value="&lt;span style=&quot;font-size: 28px;&quot;&gt;告警降噪抑制&lt;/span&gt;" style="rounded=0;whiteSpace=wrap;html=1;fillColor=#fff2cc;strokeColor=#d6b656;" vertex="1" parent="1">
          <mxGeometry x="455" y="720" width="200" height="60" as="geometry" />
        </mxCell>
        <mxCell id="SUhYFws8DFkd1RlUectK-20" value="&lt;span style=&quot;font-size: 28px;&quot;&gt;能力透出用户&lt;/span&gt;" style="rounded=0;whiteSpace=wrap;html=1;fillColor=#fff2cc;strokeColor=#d6b656;" vertex="1" parent="1">
          <mxGeometry x="1125" y="500" width="200" height="60" as="geometry" />
        </mxCell>
        <mxCell id="SUhYFws8DFkd1RlUectK-21" value="&lt;span style=&quot;font-size: 28px;&quot;&gt;规则自适应&lt;/span&gt;" style="rounded=0;whiteSpace=wrap;html=1;fillColor=#fff2cc;strokeColor=#d6b656;" vertex="1" parent="1">
          <mxGeometry x="450" y="280" width="200" height="60" as="geometry" />
        </mxCell>
        <mxCell id="SUhYFws8DFkd1RlUectK-22" value="&lt;font style=&quot;font-size: 28px;&quot;&gt;风险点检测&lt;/font&gt;" style="rounded=0;whiteSpace=wrap;html=1;fillColor=#d5e8d4;strokeColor=#82b366;" vertex="1" parent="1">
          <mxGeometry x="100" y="170" width="200" height="60" as="geometry" />
        </mxCell>
        <mxCell id="SUhYFws8DFkd1RlUectK-23" value="&lt;span style=&quot;font-size: 28px;&quot;&gt;关联历史事件&lt;/span&gt;" style="rounded=0;whiteSpace=wrap;html=1;fillColor=#fff2cc;strokeColor=#d6b656;" vertex="1" parent="1">
          <mxGeometry x="785" y="610" width="200" height="60" as="geometry" />
        </mxCell>
        <mxCell id="SUhYFws8DFkd1RlUectK-24" value="&lt;font style=&quot;font-size: 28px;&quot;&gt;风险修复工具&lt;/font&gt;" style="rounded=0;whiteSpace=wrap;html=1;fillColor=#d5e8d4;strokeColor=#82b366;" vertex="1" parent="1">
          <mxGeometry x="100" y="280" width="200" height="60" as="geometry" />
        </mxCell>
      </root>
    </mxGraphModel>
  </diagram>
</mxfile>
